<?xml version="1.0" encoding="UTF-8"?>
<svg width="11px" height="24px" viewBox="0 0 11 24" version="1.1" xmlns="http://www.w3.org/2000/svg" xmlns:xlink="http://www.w3.org/1999/xlink">
    <!-- Generator: sketchtool 60.1 (101010) - https://sketch.com -->
    <title>ABA07A15-6399-4462-865D-A9ACBD0422AE</title>
    <desc>Created with sketchtool.</desc>
    <g id="Symbols" stroke="none" stroke-width="1" fill="none" fill-rule="evenodd">
        <g id="Footer" transform="translate(-296.000000, -608.000000)" fill="#FFB919" fill-rule="nonzero">
            <g id="Bloco-1">
                <g transform="translate(295.000000, 56.000000)">
                    <path d="M3.33436295,556.648036 C3.33436295,557.252846 3.33436295,559.952366 3.33436295,559.952366 L1,559.952366 L1,563.992913 L3.33436295,563.992913 L3.33436295,576 L8.12964,576 L8.12964,563.993248 L11.3474935,563.993248 C11.3474935,563.993248 11.6488596,562.055837 11.7949423,559.937467 C11.3761182,559.937467 8.14777254,559.937467 8.14777254,559.937467 C8.14777254,559.937467 8.14777254,557.586805 8.14777254,557.174782 C8.14777254,556.761867 8.67060312,556.206439 9.18735365,556.206439 C9.70313568,556.206439 10.7917338,556.206439 11.8,556.206439 C11.8,555.656313 11.8,553.755506 11.8,552 C10.4539951,552 8.92268311,552 8.24768984,552 C3.21582886,551.999721 3.33436295,556.044286 3.33436295,556.648036 Z" id="Facebook"></path>
                </g>
            </g>
        </g>
    </g>
</svg>