<?xml version="1.0" encoding="UTF-8"?>
<svg width="24px" height="24px" viewBox="0 0 24 24" version="1.1" xmlns="http://www.w3.org/2000/svg" xmlns:xlink="http://www.w3.org/1999/xlink">
    <!-- Generator: sketchtool 60.1 (101010) - https://sketch.com -->
    <title>BEA19609-1DEA-4366-A656-0C9B16937DE0</title>
    <desc>Created with sketchtool.</desc>
    <g id="Symbols" stroke="none" stroke-width="1" fill="none" fill-rule="evenodd">
        <g id="Footer" transform="translate(-379.000000, -608.000000)" fill="#FFB919" fill-rule="nonzero">
            <g id="Bloco-1">
                <g transform="translate(295.000000, 56.000000)">
                    <path d="M101.376726,552 L90.6229904,552 C86.9710757,552 84,554.971218 84,558.623132 L84,569.376868 C84,573.028924 86.9710757,576 90.6229904,576 L101.376726,576 C105.028924,576 108,573.028782 108,569.376868 L108,558.623132 C108,554.971218 105.028924,552 101.376726,552 Z M101.376868,573.870604 L90.6229904,573.870604 C88.1452248,573.870604 86.1293963,571.854775 86.1293963,569.376868 L86.1293963,558.623132 C86.1293963,556.145367 88.1452248,554.129396 90.6229904,554.129396 L101.376726,554.129396 C103.854633,554.129396 105.870746,556.145367 105.870746,558.623132 L105.870746,569.376868 C105.870746,571.854775 103.854775,573.870604 101.376868,573.870604 Z M96,557.837838 C92.6021326,557.837838 89.8378378,560.602196 89.8378378,564.000141 C89.8378378,567.397945 92.6021326,570.162162 96,570.162162 C99.3978674,570.162162 102.162162,567.397945 102.162162,564.000141 C102.162162,560.602196 99.3978674,557.837838 96,557.837838 Z M96,559.959556 C98.2279011,559.959556 100.040352,561.772048 100.040352,564 C100.040352,566.227811 98.2277596,568.040161 96,568.040161 C93.7722404,568.040161 91.9596484,566.227811 91.9596484,564 C91.9596484,561.772048 93.7720989,559.959556 96,559.959556 Z M102.486486,555.891892 C102.914005,555.891892 103.332678,556.064373 103.633415,556.366585 C103.935627,556.667322 104.108108,557.085995 104.108108,557.513514 C104.108108,557.939558 103.935627,558.358231 103.633415,558.660442 C103.331204,558.961179 102.914005,559.135135 102.486486,559.135135 C102.060442,559.135135 101.641769,558.961179 101.341032,558.660442 C101.038821,558.358231 100.864865,557.939705 100.864865,557.513514 C100.864865,557.085995 101.038673,556.667322 101.341032,556.366585 C101.641916,556.064373 102.060442,555.891892 102.486486,555.891892 Z" id="Shape"></path>
                </g>
            </g>
        </g>
    </g>
</svg>